<?xml version="1.0" encoding="UTF-8"?> <svg xmlns="http://www.w3.org/2000/svg" width="258" height="258" viewBox="0 0 258 258" fill="none"><path fill-rule="evenodd" clip-rule="evenodd" d="M129 228.751C138.596 228.751 147.876 227.396 156.659 224.866C154.14 218.742 152.75 212.034 152.75 205.001C152.75 176.144 176.143 152.751 205 152.751C212.033 152.751 218.741 154.14 224.865 156.66C227.395 147.877 228.75 138.597 228.75 129.001C228.75 73.9104 184.09 29.2509 129 29.2509C73.9096 29.2509 29.25 73.9104 29.25 129.001C29.25 184.091 73.9096 228.751 129 228.751ZM248.403 175.902C254.114 161.375 257.25 145.554 257.25 129.001C257.25 58.1703 199.83 0.750854 129 0.750854C58.1695 0.750854 0.75 58.1703 0.75 129.001C0.75 199.831 58.1695 257.251 129 257.251C145.553 257.251 161.374 254.115 175.901 248.404C184.217 253.991 194.228 257.251 205 257.251C233.857 257.251 257.25 233.858 257.25 205.001C257.25 194.229 253.99 184.218 248.403 175.902ZM233.203 205.001C233.203 220.577 220.576 233.204 205 233.204C189.424 233.204 176.797 220.577 176.797 205.001C176.797 189.425 189.424 176.798 205 176.798C220.576 176.798 233.203 189.425 233.203 205.001Z" fill="white"></path></svg> 